<svg width="48" height="32" viewBox="0 0 48 32" fill="none" xmlns="http://www.w3.org/2000/svg">
<path d="M3.0288 10.5041H7.00933V12H0.975151V10.6309L4.93033 4.64743H0.975151V3.15156H7.00933V4.52066L3.0288 10.5041ZM15.15 4.97703V12H13.3626V11.1126C13.1344 11.4169 12.8344 11.6577 12.4625 11.8352C12.0991 12.0042 11.7019 12.0887 11.2709 12.0887C10.7216 12.0887 10.2356 11.9746 9.81309 11.7465C9.39053 11.5098 9.0567 11.1676 8.81162 10.7196C8.57498 10.2633 8.45667 9.72239 8.45667 9.097V4.97703H10.2314V8.84347C10.2314 9.40125 10.3709 9.83226 10.6498 10.1365C10.9286 10.4323 11.309 10.5802 11.7907 10.5802C12.2808 10.5802 12.6654 10.4323 12.9443 10.1365C13.2232 9.83226 13.3626 9.40125 13.3626 8.84347V4.97703H15.15ZM18.6759 6.00385C18.9041 5.66581 19.2168 5.39114 19.614 5.17986C20.0196 4.96858 20.4802 4.86294 20.9957 4.86294C21.5958 4.86294 22.1367 5.01083 22.6184 5.30663C23.1086 5.60242 23.4931 6.02498 23.772 6.57431C24.0593 7.11519 24.203 7.74481 24.203 8.46316C24.203 9.18152 24.0593 9.81958 23.772 10.3774C23.4931 10.9267 23.1086 11.3535 22.6184 11.6577C22.1367 11.962 21.5958 12.1141 20.9957 12.1141C20.4718 12.1141 20.0112 12.0127 19.614 11.8098C19.2252 11.5986 18.9125 11.3281 18.6759 10.9985V12H16.9011V2.61914H18.6759V6.00385ZM22.3902 8.46316C22.3902 8.0406 22.3015 7.6772 22.124 7.37295C21.955 7.06026 21.7268 6.82362 21.4394 6.66305C21.1605 6.50248 20.8563 6.42219 20.5267 6.42219C20.2056 6.42219 19.9013 6.5067 19.614 6.67573C19.3351 6.8363 19.1069 7.07293 18.9294 7.38563C18.7604 7.69833 18.6759 8.06595 18.6759 8.48851C18.6759 8.91108 18.7604 9.2787 18.9294 9.5914C19.1069 9.9041 19.3351 10.145 19.614 10.314C19.9013 10.4746 20.2056 10.5548 20.5267 10.5548C20.8563 10.5548 21.1605 10.4703 21.4394 10.3013C21.7268 10.1323 21.955 9.89142 22.124 9.57872C22.3015 9.26603 22.3902 8.89417 22.3902 8.46316ZM32.2114 4.97703L27.8632 15.3213H25.9744L27.4956 11.8225L24.6813 4.97703H26.6716L28.4844 9.88297L30.3225 4.97703H32.2114ZM35.2344 6.43487V9.83226C35.2344 10.0689 35.2893 10.2421 35.3992 10.352C35.5175 10.4534 35.7119 10.5041 35.9823 10.5041H36.8063V12H35.6908C34.1949 12 33.447 11.2732 33.447 9.81958V6.43487H32.6103V4.97703H33.447V3.2403H35.2344V4.97703H36.8063V6.43487H35.2344ZM44.6114 8.33639C44.6114 8.58993 44.5945 8.81811 44.5607 9.02094H39.4266C39.4688 9.52802 39.6463 9.92522 39.959 10.2126C40.2717 10.4999 40.6562 10.6436 41.1126 10.6436C41.7718 10.6436 42.2408 10.3605 42.5197 9.79423H44.4339C44.2311 10.4703 43.8424 11.0281 43.2677 11.4676C42.693 11.8986 41.9873 12.1141 41.1506 12.1141C40.4745 12.1141 39.866 11.9662 39.3252 11.6704C38.7927 11.3662 38.3744 10.9394 38.0702 10.39C37.7744 9.84071 37.6265 9.20687 37.6265 8.48851C37.6265 7.76171 37.7744 7.12364 38.0702 6.57431C38.366 6.02498 38.7801 5.60242 39.3125 5.30663C39.8449 5.01083 40.4576 4.86294 41.1506 4.86294C41.8183 4.86294 42.4141 5.00661 42.9381 5.29395C43.4705 5.58129 43.8804 5.99118 44.1677 6.5236C44.4635 7.04758 44.6114 7.65184 44.6114 8.33639ZM42.7733 7.82932C42.7648 7.37295 42.6 7.00955 42.2789 6.73911C41.9577 6.46022 41.5647 6.32078 41.0999 6.32078C40.6605 6.32078 40.2886 6.45599 39.9844 6.72643C39.6886 6.98842 39.5069 7.35605 39.4393 7.82932H42.7733Z" fill="#7200FF"/>
<path d="M13.0791 26.454H15.9948V27.8611H11.3044V19.0127H13.0791V26.454ZM26.7699 19.0127V27.8611H24.9952V22.1059L22.6246 27.8611H21.2809L18.8976 22.1059V27.8611H17.1229V19.0127H19.1385L21.9527 25.592L24.767 19.0127H26.7699ZM31.5797 27.9499C30.9628 27.9499 30.405 27.8442 29.9064 27.633C29.4162 27.4217 29.0274 27.1174 28.7401 26.7202C28.4528 26.323 28.3049 25.854 28.2964 25.3131H30.1979C30.2233 25.6765 30.3501 25.9638 30.5782 26.1751C30.8149 26.3864 31.136 26.492 31.5417 26.492C31.9558 26.492 32.2812 26.3949 32.5178 26.2005C32.7544 25.9976 32.8727 25.7357 32.8727 25.4145C32.8727 25.1525 32.7925 24.937 32.6319 24.768C32.4713 24.599 32.2685 24.468 32.0234 24.375C31.7868 24.2736 31.4572 24.1637 31.0346 24.0454C30.4599 23.8764 29.9909 23.7116 29.6275 23.551C29.2725 23.382 28.9641 23.1327 28.7021 22.8031C28.4485 22.465 28.3218 22.0171 28.3218 21.4593C28.3218 20.9354 28.4528 20.479 28.7147 20.0902C28.9767 19.7015 29.3444 19.4057 29.8176 19.2029C30.2909 18.9916 30.8318 18.8859 31.4403 18.8859C32.353 18.8859 33.0925 19.1099 33.6587 19.5578C34.2334 19.9973 34.5503 20.6142 34.6095 21.4086H32.6572C32.6403 21.1044 32.5093 20.8551 32.2643 20.6607C32.0276 20.4579 31.7107 20.3565 31.3135 20.3565C30.967 20.3565 30.6881 20.4452 30.4768 20.6227C30.274 20.8001 30.1726 21.0579 30.1726 21.396C30.1726 21.6326 30.2486 21.8312 30.4008 21.9918C30.5613 22.1439 30.7557 22.2707 30.9839 22.3721C31.2205 22.465 31.5501 22.5749 31.9727 22.7017C32.5474 22.8707 33.0164 23.0397 33.3798 23.2087C33.7432 23.3778 34.0559 23.6313 34.3179 23.9694C34.5799 24.3074 34.7109 24.7511 34.7109 25.3004C34.7109 25.7737 34.5883 26.2132 34.3433 26.6188C34.0982 27.0245 33.739 27.3498 33.2657 27.5949C32.7925 27.8316 32.2305 27.9499 31.5797 27.9499Z" fill="black"/>
</svg>
