<svg width="47" height="37" viewBox="0 0 47 37" fill="none" xmlns="http://www.w3.org/2000/svg">
<path d="M8.6009 24.2627V33.0852H6.93177V24.2627H8.6009ZM13.1829 33.1925C12.547 33.1925 11.9748 33.0534 11.4661 32.7752C10.9574 32.4891 10.556 32.0877 10.2619 31.5711C9.97578 31.0544 9.83271 30.4583 9.83271 29.7827C9.83271 29.1071 9.97975 28.511 10.2738 27.9944C10.5759 27.4777 10.9852 27.0803 11.5018 26.8021C12.0185 26.516 12.5947 26.3729 13.2306 26.3729C13.8664 26.3729 14.4427 26.516 14.9593 26.8021C15.4759 27.0803 15.8813 27.4777 16.1754 27.9944C16.4774 28.511 16.6284 29.1071 16.6284 29.7827C16.6284 30.4583 16.4734 31.0544 16.1635 31.5711C15.8614 32.0877 15.4481 32.4891 14.9235 32.7752C14.4069 33.0534 13.8267 33.1925 13.1829 33.1925ZM13.1829 31.738C13.4849 31.738 13.7671 31.6664 14.0294 31.5234C14.2996 31.3724 14.5142 31.1498 14.6732 30.8557C14.8321 30.5616 14.9116 30.204 14.9116 29.7827C14.9116 29.1548 14.7447 28.6739 14.4109 28.3401C14.085 27.9983 13.6836 27.8275 13.2067 27.8275C12.7298 27.8275 12.3285 27.9983 12.0026 28.3401C11.6846 28.6739 11.5257 29.1548 11.5257 29.7827C11.5257 30.4106 11.6807 30.8955 11.9907 31.2372C12.3086 31.5711 12.706 31.738 13.1829 31.738ZM20.4399 26.3729C20.9327 26.3729 21.3659 26.4723 21.7395 26.671C22.113 26.8618 22.4071 27.1121 22.6217 27.4221V26.4802H24.3028V33.1329C24.3028 33.7449 24.1796 34.2894 23.9332 34.7663C23.6868 35.2511 23.3172 35.6326 22.8244 35.9108C22.3316 36.1969 21.7355 36.34 21.0361 36.34C20.0982 36.34 19.3272 36.1214 18.7231 35.6843C18.127 35.2471 17.7892 34.651 17.7097 33.8959H19.3669C19.4544 34.198 19.6411 34.4364 19.9273 34.6113C20.2214 34.7941 20.5751 34.8855 20.9884 34.8855C21.4732 34.8855 21.8666 34.7384 22.1687 34.4443C22.4707 34.1582 22.6217 33.7211 22.6217 33.1329V32.1076C22.4071 32.4176 22.1091 32.6759 21.7276 32.8825C21.354 33.0892 20.9248 33.1925 20.4399 33.1925C19.8836 33.1925 19.3749 33.0494 18.9139 32.7633C18.4529 32.4772 18.0873 32.0758 17.817 31.5591C17.5547 31.0346 17.4236 30.4345 17.4236 29.7589C17.4236 29.0912 17.5547 28.4991 17.817 27.9825C18.0873 27.4658 18.4489 27.0684 18.902 26.7902C19.363 26.512 19.8756 26.3729 20.4399 26.3729ZM22.6217 29.7827C22.6217 29.3774 22.5422 29.0316 22.3833 28.7455C22.2243 28.4514 22.0097 28.2288 21.7395 28.0778C21.4692 27.9189 21.1791 27.8394 20.8691 27.8394C20.5592 27.8394 20.273 27.9149 20.0107 28.0659C19.7484 28.2169 19.5338 28.4395 19.3669 28.7336C19.208 29.0197 19.1285 29.3615 19.1285 29.7589C19.1285 30.1563 19.208 30.506 19.3669 30.808C19.5338 31.1021 19.7484 31.3287 20.0107 31.4876C20.281 31.6466 20.5671 31.7261 20.8691 31.7261C21.1791 31.7261 21.4692 31.6506 21.7395 31.4995C22.0097 31.3406 22.2243 31.118 22.3833 30.8319C22.5422 30.5378 22.6217 30.1881 22.6217 29.7827ZM28.8659 33.1925C28.23 33.1925 27.6577 33.0534 27.149 32.7752C26.6404 32.4891 26.239 32.0877 25.9449 31.5711C25.6587 31.0544 25.5157 30.4583 25.5157 29.7827C25.5157 29.1071 25.6627 28.511 25.9568 27.9944C26.2588 27.4777 26.6682 27.0803 27.1848 26.8021C27.7014 26.516 28.2777 26.3729 28.9135 26.3729C29.5494 26.3729 30.1256 26.516 30.6423 26.8021C31.1589 27.0803 31.5643 27.4777 31.8584 27.9944C32.1604 28.511 32.3114 29.1071 32.3114 29.7827C32.3114 30.4583 32.1564 31.0544 31.8464 31.5711C31.5444 32.0877 31.1311 32.4891 30.6065 32.7752C30.0899 33.0534 29.5097 33.1925 28.8659 33.1925ZM28.8659 31.738C29.1679 31.738 29.45 31.6664 29.7123 31.5234C29.9826 31.3724 30.1972 31.1498 30.3561 30.8557C30.5151 30.5616 30.5946 30.204 30.5946 29.7827C30.5946 29.1548 30.4277 28.6739 30.0939 28.3401C29.768 27.9983 29.3666 27.8275 28.8897 27.8275C28.4128 27.8275 28.0114 27.9983 27.6855 28.3401C27.3676 28.6739 27.2087 29.1548 27.2087 29.7827C27.2087 30.4106 27.3636 30.8955 27.6736 31.2372C27.9915 31.5711 28.389 31.738 28.8659 31.738Z" fill="black"/>
<path d="M4.30396 17.7142H9.04037V20H1.42092V5.62602H4.30396V17.7142ZM25.0409 8.42668C26.4412 8.42668 27.567 8.85914 28.4181 9.72405C29.2831 10.5752 29.7155 11.7696 29.7155 13.3072V20H26.8325V13.6985C26.8325 12.8061 26.606 12.1266 26.1529 11.6598C25.6999 11.1793 25.0821 10.939 24.2995 10.939C23.517 10.939 22.8923 11.1793 22.4256 11.6598C21.9725 12.1266 21.746 12.8061 21.746 13.6985V20H18.863V13.6985C18.863 12.8061 18.6364 12.1266 18.1834 11.6598C17.7303 11.1793 17.1125 10.939 16.33 10.939C15.5337 10.939 14.9022 11.1793 14.4354 11.6598C13.9824 12.1266 13.7559 12.8061 13.7559 13.6985V20H10.8728V8.59143H13.7559V9.97116C14.1265 9.49066 14.6002 9.11312 15.1768 8.83854C15.7671 8.56397 16.4124 8.42668 17.1125 8.42668C18.0049 8.42668 18.8012 8.61888 19.5013 9.00329C20.2015 9.37396 20.7438 9.90938 21.1282 10.6095C21.4989 9.95057 22.0343 9.42201 22.7345 9.02388C23.4483 8.62575 24.2172 8.42668 25.0409 8.42668ZM36.8171 20.1853C35.8835 20.1853 35.0461 20.0206 34.3047 19.6911C33.5634 19.3479 32.973 18.888 32.5337 18.3114C32.1081 17.7348 31.8747 17.0964 31.8335 16.3962H34.7372C34.7921 16.8355 35.0049 17.1993 35.3756 17.4876C35.76 17.7759 36.2336 17.9201 36.7965 17.9201C37.3456 17.9201 37.7712 17.8103 38.0732 17.5906C38.389 17.3709 38.5469 17.0895 38.5469 16.7463C38.5469 16.3756 38.3547 16.101 37.9703 15.9226C37.5996 15.7304 37.0024 15.5244 36.1787 15.3048C35.3275 15.0988 34.6273 14.886 34.0782 14.6664C33.5428 14.4467 33.076 14.1104 32.6779 13.6573C32.2935 13.2043 32.1013 12.5934 32.1013 11.8245C32.1013 11.193 32.2797 10.6164 32.6367 10.0947C33.0073 9.57303 33.529 9.16117 34.2017 8.85914C34.8882 8.5571 35.6913 8.40609 36.6111 8.40609C37.9703 8.40609 39.0549 8.74931 39.8648 9.43574C40.6748 10.1085 41.121 11.0214 41.2034 12.1746H38.4439C38.4027 11.7216 38.2105 11.3646 37.8673 11.1038C37.5378 10.8292 37.0916 10.6919 36.5288 10.6919C36.0071 10.6919 35.6021 10.788 35.3138 10.9802C35.0392 11.1724 34.9019 11.4401 34.9019 11.7834C34.9019 12.1678 35.0941 12.4629 35.4785 12.6689C35.8629 12.8611 36.4601 13.0601 37.2701 13.2661C38.0938 13.472 38.7734 13.6848 39.3088 13.9044C39.8443 14.1241 40.3042 14.4673 40.6886 14.9341C41.0867 15.3871 41.2926 15.9912 41.3064 16.7463C41.3064 17.4053 41.121 17.9956 40.7504 18.5173C40.3934 19.039 39.8717 19.4509 39.1853 19.7529C38.5126 20.0412 37.7232 20.1853 36.8171 20.1853Z" fill="white"/>
</svg>
