<svg width="360" height="220" viewBox="0 0 360 220" fill="none" xmlns="http://www.w3.org/2000/svg">
<rect width="360" height="220" fill="#1E1E1E"/>
<g clip-path="url(#clip0_568_3855)">
<rect width="360" height="220" fill="#FCFAFF"/>
<mask id="path-1-inside-1_568_3855" fill="white">
<path d="M0 0H360V220H0V0Z"/>
</mask>
<path d="M0 0H360V220H0V0Z" fill="#FCFAFF"/>
<path d="M360 219H0V221H360V219Z" fill="#7200FF" mask="url(#path-1-inside-1_568_3855)"/>
<path d="M332.734 103L-3.9665e-05 220.101L332.734 220.101L332.734 103Z" fill="url(#paint0_linear_568_3855)"/>
<path d="M360 35L147.42 220.101L360 220.101L360 35Z" fill="url(#paint1_linear_568_3855)"/>
<path d="M360 125.298V87L168 220L360 220L360 125.298Z" fill="url(#paint2_linear_568_3855)"/>
<path d="M360 130L190.213 220.101L360 220.101L360 130Z" fill="#7200FF"/>
<path d="M360 171L217.664 220.101L360 220.101V171Z" fill="url(#paint3_linear_568_3855)"/>
<g clip-path="url(#clip1_568_3855)">
<path d="M69.7698 205.168L71.5284 216.209L76.627 216.737L74.8602 204.406L69.7698 205.168Z" fill="#FFEEE3"/>
<path d="M70.8291 215.447C70.934 215.058 71.3132 214.911 71.5874 215.145C72.1118 215.612 73.0557 216.174 74.4029 215.975C75.8066 215.776 76.3068 214.859 76.4924 214.219C76.5892 213.881 76.8877 213.7 77.1539 213.829L86.6975 218.121C87.2299 218.381 87.6494 218.891 87.8672 219.532C88.077 220.137 87.714 220.804 87.1815 220.812L71.5471 220.916C70.9663 220.916 70.4984 220.328 70.5306 219.609L70.6678 216.114C70.6678 216.053 70.6758 216.001 70.692 215.941L70.8291 215.447Z" fill="#1F252A"/>
<path d="M49.1585 154.367H47.0771L47.0771 219.462H49.1585L49.1585 154.367Z" fill="#2A272D"/>
<path d="M44.6509 140.981L59.5592 170.349L68.9899 211.147H77.5493L71.4424 165.806L44.6509 140.981Z" fill="#232322"/>
<path d="M56.9521 153.407H38.3167C35.6464 153.407 33.4763 151.088 33.4763 148.215C33.4763 145.351 35.6384 143.023 38.3167 143.023H56.9521C59.6224 143.023 61.7925 145.351 61.7925 148.215C61.7925 151.088 59.6224 153.407 56.9521 153.407Z" fill="#7200FF"/>
<path d="M57.0644 153.407H39.155V155.328H57.0644V153.407Z" fill="#2A272D"/>
<path d="M57.0644 203.662H39.155V205.583H57.0644V203.662Z" fill="#2A272D"/>
<path d="M47.1492 87.7922C43.5592 87.3249 40.1549 89.6525 38.7834 93.2348C37.6217 96.2547 36.6536 100.633 37.6863 105.712C40.8325 121.261 38.9528 132.017 38.9528 132.017H55.9991L55.9345 110.843C55.9345 110.843 57.1124 108.377 57.7497 105.15C58.6451 100.633 58.3062 100.045 55.8457 96.047L50.6101 89.1939C50.6182 89.1939 49.4483 88.0864 47.1492 87.7922Z" fill="#7200FF"/>
<path d="M78.1545 102.796C79.292 100.356 82.051 99.3698 84.3259 100.59C86.6009 101.81 87.5206 104.769 86.3831 107.209C85.2456 109.649 82.4866 110.636 80.2116 109.416C77.9366 108.204 77.017 105.236 78.1545 102.796Z" fill="#FFEEE3"/>
<path d="M79.1621 101.369L70.4978 110.194L73.7893 114.123L80.5416 107.919L79.1621 101.369Z" fill="#FFEEE3"/>
<path d="M41.3083 101.49L56.9831 127.042C57.5881 128.019 58.8305 128.253 59.7098 127.543L78.6275 111.605L74.7956 104.553L60.1616 116.546L49.9323 96.2547C48.5689 93.2089 44.9467 92.283 42.4458 94.3251C40.3644 96.021 39.8723 99.1534 41.3083 101.49Z" fill="#7200FF"/>
<path d="M48.1342 91.6601C47.1419 91.6514 46.085 91.2101 45.3025 90.7774C44.528 90.3534 44.044 89.4795 44.0521 88.545L44.2134 71.3778L51.2078 71.4124L51.0464 88.3633C51.0384 90.3102 49.7315 91.6687 48.1342 91.6601Z" fill="#FFEEE3"/>
<path d="M51.093 83.6043L48.2048 79.2173C48.2048 79.2173 46.4381 84.2273 51.0768 85.7675L51.093 83.6043Z" fill="#F2C09E"/>
<path d="M57.3942 71.4469C57.37 76.5608 53.4897 80.6795 48.7219 80.6536C43.9541 80.6276 40.1141 76.4656 40.1383 71.3517C40.1625 66.2379 44.0429 62.1192 48.8106 62.1451C53.5703 62.1711 57.4104 66.3331 57.3942 71.4469Z" fill="#FFEEE3"/>
<path d="M51.7059 83.6561C49.4471 83.6474 47.6158 81.6659 47.6319 79.2431L47.6561 72.9092L57.3853 71.4469L57.3611 77.651C57.345 80.9823 54.8199 83.6734 51.7059 83.6561Z" fill="#FFEEE3"/>
<path d="M57.127 73.5149L58.9986 76.5001C59.2648 76.9847 58.9179 77.5817 58.3613 77.5817L56.175 78.0144L57.127 73.5149Z" fill="#FFEEE3"/>
<path d="M47.6676 75.4446L51.3382 75.3061C51.3382 75.3061 51.6528 71.8881 52.3708 71.0661C53.0888 70.2441 53.4518 66.5927 53.4518 66.5927C53.4518 66.5927 51.7173 68.8684 51.2091 71.222L58.8972 71.0142C58.8972 71.0142 60.0429 61.0116 48.4018 60.527C36.7525 60.0424 37.0752 71.8622 39.3663 74.2071C41.1895 76.0761 44.1421 80.6622 44.1421 80.6622C44.1421 80.6622 44.0051 75.583 47.6676 75.4446Z" fill="#4C1827"/>
<path d="M50.3284 74.2332C50.3768 75.6955 49.3119 76.9155 47.9566 76.9675C46.5933 77.0194 45.4558 75.8772 45.3993 74.4235C45.3509 72.9612 46.4157 71.7412 47.771 71.6807C49.1344 71.6287 50.2719 72.7708 50.3284 74.2332Z" fill="#FFEEE3"/>
<path d="M43.2134 59.2465C43.5845 62.5259 41.4144 65.5025 38.365 65.9092C35.3075 66.3072 32.5323 63.9796 32.1531 60.7002C31.782 57.4207 33.9521 54.4442 37.0096 54.0461C40.0672 53.6394 42.8423 55.9671 43.2134 59.2465Z" fill="#4C1827"/>
<path d="M44.3262 89.7305C44.3262 89.7305 44.9958 91.9716 54.3377 94.057L49.9975 87.7231L44.3262 89.7305Z" fill="#FFEEE3"/>
<path d="M48.1176 216.174L35.5972 220.769H60.6219L48.1176 216.174Z" fill="#2A272D"/>
<path d="M49.0608 188.65L42.2117 197.484L47.1327 199.492L54.0061 190.138L49.0608 188.65Z" fill="#FFEEE3"/>
<path d="M42.447 196.281C42.689 195.978 43.0924 195.996 43.2537 196.333C43.5603 196.991 44.2057 197.908 45.5207 198.306C46.884 198.721 48.3765 197.441 48.7798 196.93C48.9896 196.662 49.3365 196.619 49.5301 196.861L57.912 203.169C58.2993 203.636 58.4929 204.285 58.4606 204.969C58.4283 205.609 57.8475 206.068 57.3554 205.843L40.769 201.343C40.2366 201.092 40.0268 200.348 40.3253 199.708L42.0517 196.818C42.0759 196.766 42.1082 196.714 42.1405 196.671L42.447 196.281Z" fill="#1F252A"/>
<path d="M38.4623 132.017C38.4623 132.017 33.3315 144.546 51.5636 151.217L64.1647 163.773L44.658 191.791L53.3788 195.174L77.0643 168.142C78.8149 165.953 78.8875 162.596 77.2337 160.312L56.0087 132.008H38.4623V132.017Z" fill="#383635"/>
<path d="M137.673 120.95L75.3853 120.95V124.671L137.673 124.671V120.95Z" fill="#7200FF"/>
<path d="M90.707 220.786L90.707 124.671" stroke="#2A272D" stroke-width="0.770607" stroke-miterlimit="10"/>
<path d="M121.854 220.786L121.854 124.671" stroke="#2A272D" stroke-width="0.770607" stroke-miterlimit="10"/>
<path d="M114.495 118.925L88.583 118.925V120.725L114.495 120.725V118.925Z" fill="#2A272D"/>
<path d="M114.494 120.734L122.884 94.4637L121.125 94.0138L112.905 119.246L114.494 120.734Z" fill="#2A272D"/>
<path d="M55.7829 125.086L43.2705 104.682L55.7829 125.086Z" fill="#7200FF"/>
<path d="M55.7829 125.086L43.2705 104.682" stroke="#7200FF" stroke-width="0.265089" stroke-miterlimit="10" stroke-linecap="round" stroke-linejoin="round"/>
<path d="M56.539 109.078L51.7632 100.979" stroke="#7200FF" stroke-width="0.265089" stroke-miterlimit="10" stroke-linecap="round" stroke-linejoin="round"/>
</g>
<path d="M168.862 93.5693H171.827V95H167.058V86.0036H168.862V93.5693ZM176.144 95.116C175.457 95.116 174.838 94.9656 174.288 94.6649C173.738 94.3556 173.304 93.9216 172.986 93.3631C172.677 92.8046 172.522 92.1602 172.522 91.4298C172.522 90.6994 172.681 90.055 172.999 89.4965C173.326 88.9379 173.768 88.5083 174.327 88.2076C174.885 87.8982 175.508 87.7436 176.196 87.7436C176.883 87.7436 177.506 87.8982 178.065 88.2076C178.623 88.5083 179.061 88.9379 179.379 89.4965C179.706 90.055 179.869 90.6994 179.869 91.4298C179.869 92.1602 179.702 92.8046 179.366 93.3631C179.04 93.9216 178.593 94.3556 178.026 94.6649C177.467 94.9656 176.84 95.116 176.144 95.116ZM176.144 93.5436C176.471 93.5436 176.776 93.4662 177.059 93.3116C177.351 93.1483 177.583 92.9077 177.755 92.5898C177.927 92.2719 178.013 91.8852 178.013 91.4298C178.013 90.751 177.833 90.2311 177.472 89.8702C177.119 89.5008 176.686 89.316 176.17 89.316C175.654 89.316 175.221 89.5008 174.868 89.8702C174.525 90.2311 174.353 90.751 174.353 91.4298C174.353 92.1086 174.52 92.6327 174.855 93.0022C175.199 93.3631 175.629 93.5436 176.144 93.5436ZM182.997 88.968C183.229 88.5899 183.53 88.2935 183.899 88.0787C184.277 87.8639 184.707 87.7565 185.188 87.7565V89.6511H184.711C184.144 89.6511 183.715 89.7843 183.423 90.0507C183.139 90.317 182.997 90.781 182.997 91.4427V95H181.193V87.8596H182.997V88.968ZM193.041 91.2751C193.041 91.5329 193.024 91.7649 192.99 91.9711H187.77C187.813 92.4867 187.993 92.8905 188.311 93.1827C188.629 93.4748 189.02 93.6209 189.484 93.6209C190.154 93.6209 190.631 93.333 190.915 92.7573H192.861C192.655 93.4447 192.259 94.0119 191.675 94.4587C191.091 94.8969 190.373 95.116 189.523 95.116C188.835 95.116 188.217 94.9656 187.667 94.6649C187.125 94.3556 186.7 93.9216 186.391 93.3631C186.09 92.8046 185.94 92.1602 185.94 91.4298C185.94 90.6908 186.09 90.0421 186.391 89.4836C186.692 88.9251 187.113 88.4954 187.654 88.1947C188.195 87.8939 188.818 87.7436 189.523 87.7436C190.202 87.7436 190.807 87.8896 191.34 88.1818C191.881 88.4739 192.298 88.8907 192.59 89.432C192.891 89.9648 193.041 90.5791 193.041 91.2751ZM191.173 90.7596C191.164 90.2956 190.996 89.9261 190.67 89.6511C190.343 89.3676 189.944 89.2258 189.471 89.2258C189.024 89.2258 188.646 89.3633 188.337 89.6382C188.036 89.9046 187.852 90.2784 187.783 90.7596H191.173ZM203.226 87.7565C204.102 87.7565 204.807 88.0271 205.34 88.5685C205.881 89.1012 206.152 89.8488 206.152 90.8111V95H204.347V91.056C204.347 90.4975 204.206 90.0722 203.922 89.78C203.638 89.4793 203.252 89.3289 202.762 89.3289C202.272 89.3289 201.881 89.4793 201.589 89.78C201.306 90.0722 201.164 90.4975 201.164 91.056V95H199.359V91.056C199.359 90.4975 199.218 90.0722 198.934 89.78C198.65 89.4793 198.264 89.3289 197.774 89.3289C197.276 89.3289 196.88 89.4793 196.588 89.78C196.305 90.0722 196.163 90.4975 196.163 91.056V95H194.359V87.8596H196.163V88.7231C196.395 88.4224 196.691 88.1861 197.052 88.0142C197.422 87.8424 197.826 87.7565 198.264 87.7565C198.822 87.7565 199.321 87.8768 199.759 88.1173C200.197 88.3493 200.537 88.6845 200.777 89.1227C201.009 88.7102 201.344 88.3794 201.782 88.1302C202.229 87.8811 202.71 87.7565 203.226 87.7565ZM247.67 87.7565C248.546 87.7565 249.251 88.0271 249.784 88.5685C250.325 89.1012 250.596 89.8488 250.596 90.8111V95H248.791V91.056C248.791 90.4975 248.649 90.0722 248.366 89.78C248.082 89.4793 247.696 89.3289 247.206 89.3289C246.716 89.3289 246.325 89.4793 246.033 89.78C245.749 90.0722 245.608 90.4975 245.608 91.056V95H243.803V91.056C243.803 90.4975 243.662 90.0722 243.378 89.78C243.094 89.4793 242.708 89.3289 242.218 89.3289C241.72 89.3289 241.324 89.4793 241.032 89.78C240.749 90.0722 240.607 90.4975 240.607 91.056V95H238.802V87.8596H240.607V88.7231C240.839 88.4224 241.135 88.1861 241.496 88.0142C241.866 87.8424 242.27 87.7565 242.708 87.7565C243.266 87.7565 243.765 87.8768 244.203 88.1173C244.641 88.3493 244.98 88.6845 245.221 89.1227C245.453 88.7102 245.788 88.3794 246.226 88.1302C246.673 87.8811 247.154 87.7565 247.67 87.7565ZM254.915 91.404C254.915 90.6822 255.057 90.0421 255.341 89.4836C255.633 88.9251 256.024 88.4954 256.513 88.1947C257.012 87.8939 257.566 87.7436 258.176 87.7436C258.709 87.7436 259.173 87.851 259.568 88.0658C259.972 88.2806 260.294 88.5513 260.535 88.8778V87.8596H262.352V95H260.535V93.956C260.303 94.2911 259.981 94.5704 259.568 94.7938C259.164 95.0086 258.696 95.116 258.163 95.116C257.562 95.116 257.012 94.9613 256.513 94.652C256.024 94.3427 255.633 93.9087 255.341 93.3502C255.057 92.7831 254.915 92.1344 254.915 91.404ZM260.535 91.4298C260.535 90.9916 260.449 90.6178 260.277 90.3085C260.105 89.9905 259.873 89.7499 259.581 89.5867C259.289 89.4148 258.975 89.3289 258.64 89.3289C258.305 89.3289 257.996 89.4105 257.712 89.5738C257.429 89.737 257.197 89.9776 257.016 90.2956C256.844 90.6049 256.758 90.9744 256.758 91.404C256.758 91.8336 256.844 92.2117 257.016 92.5382C257.197 92.8562 257.429 93.101 257.712 93.2729C258.004 93.4447 258.314 93.5307 258.64 93.5307C258.975 93.5307 259.289 93.449 259.581 93.2858C259.873 93.1139 260.105 92.8733 260.277 92.564C260.449 92.2461 260.535 91.868 260.535 91.4298ZM272.982 87.7565C273.858 87.7565 274.563 88.0271 275.096 88.5685C275.637 89.1012 275.908 89.8488 275.908 90.8111V95H274.103V91.056C274.103 90.4975 273.961 90.0722 273.678 89.78C273.394 89.4793 273.008 89.3289 272.518 89.3289C272.028 89.3289 271.637 89.4793 271.345 89.78C271.062 90.0722 270.92 90.4975 270.92 91.056V95H269.115V91.056C269.115 90.4975 268.974 90.0722 268.69 89.78C268.406 89.4793 268.02 89.3289 267.53 89.3289C267.032 89.3289 266.636 89.4793 266.344 89.78C266.061 90.0722 265.919 90.4975 265.919 91.056V95H264.114V87.8596H265.919V88.7231C266.151 88.4224 266.447 88.1861 266.808 88.0142C267.178 87.8424 267.582 87.7565 268.02 87.7565C268.578 87.7565 269.077 87.8768 269.515 88.1173C269.953 88.3493 270.292 88.6845 270.533 89.1227C270.765 88.7102 271.1 88.3794 271.538 88.1302C271.985 87.8811 272.466 87.7565 272.982 87.7565ZM278.535 87.0089C278.217 87.0089 277.951 86.9101 277.736 86.7125C277.53 86.5062 277.427 86.2528 277.427 85.952C277.427 85.6513 277.53 85.4021 277.736 85.2045C277.951 84.9982 278.217 84.8951 278.535 84.8951C278.853 84.8951 279.115 84.9982 279.321 85.2045C279.536 85.4021 279.644 85.6513 279.644 85.952C279.644 86.2528 279.536 86.5062 279.321 86.7125C279.115 86.9101 278.853 87.0089 278.535 87.0089ZM279.424 87.8596V95H277.62V87.8596H279.424ZM280.743 91.404C280.743 90.6822 280.885 90.0421 281.169 89.4836C281.461 88.9251 281.856 88.4954 282.354 88.1947C282.853 87.8939 283.407 87.7436 284.017 87.7436C284.481 87.7436 284.924 87.8467 285.345 88.0529C285.766 88.2505 286.101 88.5169 286.35 88.852V85.4622H288.18V95H286.35V93.9431C286.126 94.2954 285.813 94.579 285.409 94.7938C285.005 95.0086 284.537 95.116 284.004 95.116C283.403 95.116 282.853 94.9613 282.354 94.652C281.856 94.3427 281.461 93.9087 281.169 93.3502C280.885 92.7831 280.743 92.1344 280.743 91.404ZM286.363 91.4298C286.363 90.9916 286.277 90.6178 286.105 90.3085C285.933 89.9905 285.701 89.7499 285.409 89.5867C285.117 89.4148 284.803 89.3289 284.468 89.3289C284.133 89.3289 283.824 89.4105 283.54 89.5738C283.257 89.737 283.025 89.9776 282.844 90.2956C282.672 90.6049 282.586 90.9744 282.586 91.404C282.586 91.8336 282.672 92.2117 282.844 92.5382C283.025 92.8562 283.257 93.101 283.54 93.2729C283.832 93.4447 284.142 93.5307 284.468 93.5307C284.803 93.5307 285.117 93.449 285.409 93.2858C285.701 93.1139 285.933 92.8733 286.105 92.564C286.277 92.2461 286.363 91.868 286.363 91.4298Z" fill="black"/>
<path d="M212.74 86.0036V95H210.935V86.0036H212.74ZM216.327 88.8907C216.559 88.5642 216.877 88.2935 217.281 88.0787C217.693 87.8553 218.161 87.7436 218.686 87.7436C219.296 87.7436 219.846 87.8939 220.335 88.1947C220.834 88.4954 221.225 88.9251 221.508 89.4836C221.8 90.0335 221.946 90.6736 221.946 91.404C221.946 92.1344 221.8 92.7831 221.508 93.3502C221.225 93.9087 220.834 94.3427 220.335 94.652C219.846 94.9613 219.296 95.116 218.686 95.116C218.161 95.116 217.697 95.0086 217.294 94.7938C216.898 94.579 216.576 94.3083 216.327 93.9818V98.4027H214.523V87.8596H216.327V88.8907ZM220.103 91.404C220.103 90.9744 220.013 90.6049 219.833 90.2956C219.661 89.9776 219.429 89.737 219.137 89.5738C218.853 89.4105 218.544 89.3289 218.209 89.3289C217.882 89.3289 217.573 89.4148 217.281 89.5867C216.997 89.7499 216.765 89.9905 216.585 90.3085C216.413 90.6264 216.327 91.0002 216.327 91.4298C216.327 91.8594 216.413 92.2332 216.585 92.5511C216.765 92.869 216.997 93.1139 217.281 93.2858C217.573 93.449 217.882 93.5307 218.209 93.5307C218.544 93.5307 218.853 93.4447 219.137 93.2729C219.429 93.101 219.661 92.8562 219.833 92.5382C220.013 92.2203 220.103 91.8422 220.103 91.404ZM225.99 95.116C225.406 95.116 224.882 95.0129 224.418 94.8067C223.954 94.5919 223.584 94.304 223.309 93.9431C223.043 93.5822 222.897 93.1827 222.871 92.7444H224.688C224.723 93.0194 224.856 93.2471 225.088 93.4276C225.329 93.608 225.625 93.6982 225.977 93.6982C226.321 93.6982 226.587 93.6295 226.776 93.492C226.974 93.3545 227.073 93.1784 227.073 92.9636C227.073 92.7316 226.953 92.5597 226.712 92.448C226.48 92.3277 226.106 92.1988 225.591 92.0613C225.058 91.9325 224.62 91.7993 224.276 91.6618C223.941 91.5243 223.649 91.3138 223.4 91.0302C223.159 90.7467 223.039 90.3643 223.039 89.8831C223.039 89.4879 223.15 89.127 223.374 88.8005C223.606 88.4739 223.932 88.2162 224.353 88.0271C224.783 87.8381 225.286 87.7436 225.861 87.7436C226.712 87.7436 227.391 87.9584 227.898 88.388C228.405 88.8091 228.684 89.3805 228.735 90.1022H227.008C226.983 89.8187 226.862 89.5953 226.648 89.432C226.441 89.2602 226.162 89.1742 225.81 89.1742C225.483 89.1742 225.23 89.2344 225.049 89.3547C224.877 89.475 224.792 89.6425 224.792 89.8573C224.792 90.0979 224.912 90.2827 225.152 90.4116C225.393 90.5319 225.767 90.6565 226.274 90.7853C226.789 90.9142 227.215 91.0474 227.55 91.1849C227.885 91.3224 228.173 91.5372 228.413 91.8293C228.662 92.1129 228.791 92.491 228.8 92.9636C228.8 93.376 228.684 93.7455 228.452 94.072C228.229 94.3985 227.902 94.6563 227.472 94.8453C227.051 95.0258 226.557 95.116 225.99 95.116ZM237.022 87.8596V95H235.205V94.0978C234.973 94.4071 234.668 94.652 234.29 94.8324C233.92 95.0043 233.516 95.0902 233.078 95.0902C232.52 95.0902 232.025 94.9742 231.596 94.7422C231.166 94.5016 230.827 94.1536 230.578 93.6982C230.337 93.2342 230.217 92.6843 230.217 92.0485V87.8596H232.021V91.7907C232.021 92.3578 232.163 92.796 232.446 93.1053C232.73 93.4061 233.117 93.5564 233.606 93.5564C234.105 93.5564 234.496 93.4061 234.779 93.1053C235.063 92.796 235.205 92.3578 235.205 91.7907V87.8596H237.022Z" fill="#7200FF"/>
<path d="M166.248 106.406H167.46V106.88H165.66V103.296H166.248V106.406ZM169.247 106.926C168.979 106.926 168.736 106.866 168.52 106.746C168.303 106.622 168.133 106.45 168.009 106.23C167.885 106.007 167.823 105.749 167.823 105.457C167.823 105.168 167.887 104.912 168.014 104.688C168.141 104.465 168.315 104.293 168.535 104.172C168.755 104.052 169.001 103.992 169.273 103.992C169.544 103.992 169.79 104.052 170.01 104.172C170.23 104.293 170.404 104.465 170.531 104.688C170.658 104.912 170.722 105.168 170.722 105.457C170.722 105.745 170.656 106.002 170.526 106.225C170.395 106.449 170.216 106.622 169.989 106.746C169.766 106.866 169.518 106.926 169.247 106.926ZM169.247 106.416C169.398 106.416 169.539 106.38 169.67 106.308C169.804 106.235 169.912 106.127 169.995 105.983C170.077 105.838 170.118 105.663 170.118 105.457C170.118 105.25 170.079 105.077 170 104.936C169.921 104.791 169.816 104.683 169.685 104.611C169.555 104.539 169.414 104.502 169.262 104.502C169.111 104.502 168.97 104.539 168.839 104.611C168.712 104.683 168.611 104.791 168.535 104.936C168.459 105.077 168.422 105.25 168.422 105.457C168.422 105.763 168.499 106 168.654 106.168C168.812 106.333 169.01 106.416 169.247 106.416ZM171.953 104.451C172.039 104.306 172.152 104.195 172.293 104.116C172.438 104.033 172.608 103.992 172.804 103.992V104.6H172.654C172.424 104.6 172.249 104.659 172.128 104.776C172.011 104.893 171.953 105.096 171.953 105.384V106.88H171.365V104.038H171.953V104.451ZM176.011 105.39C176.011 105.496 176.004 105.592 175.99 105.678H173.819C173.836 105.905 173.921 106.087 174.072 106.225C174.223 106.363 174.409 106.431 174.629 106.431C174.945 106.431 175.169 106.299 175.299 106.034H175.934C175.848 106.296 175.691 106.51 175.464 106.679C175.241 106.844 174.962 106.926 174.629 106.926C174.357 106.926 174.113 106.866 173.896 106.746C173.683 106.622 173.515 106.45 173.391 106.23C173.271 106.007 173.211 105.749 173.211 105.457C173.211 105.164 173.269 104.908 173.386 104.688C173.506 104.465 173.673 104.293 173.886 104.172C174.103 104.052 174.35 103.992 174.629 103.992C174.897 103.992 175.136 104.05 175.346 104.167C175.555 104.284 175.719 104.449 175.836 104.662C175.953 104.872 176.011 105.114 176.011 105.39ZM175.397 105.204C175.394 104.987 175.316 104.814 175.165 104.683C175.014 104.552 174.827 104.487 174.603 104.487C174.4 104.487 174.227 104.552 174.082 104.683C173.938 104.81 173.852 104.984 173.824 105.204H175.397ZM180.092 103.992C180.315 103.992 180.515 104.038 180.69 104.131C180.869 104.224 181.008 104.362 181.108 104.544C181.211 104.726 181.262 104.946 181.262 105.204V106.88H180.68V105.292C180.68 105.037 180.616 104.843 180.489 104.709C180.362 104.571 180.188 104.502 179.968 104.502C179.748 104.502 179.572 104.571 179.442 104.709C179.315 104.843 179.251 105.037 179.251 105.292V106.88H178.668V105.292C178.668 105.037 178.605 104.843 178.477 104.709C178.35 104.571 178.177 104.502 177.956 104.502C177.736 104.502 177.561 104.571 177.43 104.709C177.303 104.843 177.24 105.037 177.24 105.292V106.88H176.652V104.038H177.24V104.363C177.336 104.246 177.458 104.155 177.606 104.09C177.754 104.025 177.912 103.992 178.08 103.992C178.307 103.992 178.51 104.04 178.689 104.136C178.868 104.233 179.005 104.372 179.101 104.554C179.187 104.382 179.321 104.246 179.504 104.147C179.686 104.043 179.882 103.992 180.092 103.992ZM183.774 103.662C183.667 103.662 183.578 103.626 183.505 103.554C183.433 103.481 183.397 103.392 183.397 103.285C183.397 103.179 183.433 103.089 183.505 103.017C183.578 102.945 183.667 102.909 183.774 102.909C183.877 102.909 183.964 102.945 184.037 103.017C184.109 103.089 184.145 103.179 184.145 103.285C184.145 103.392 184.109 103.481 184.037 103.554C183.964 103.626 183.877 103.662 183.774 103.662ZM184.062 104.038V106.88H183.474V104.038H184.062ZM185.484 104.456C185.584 104.325 185.72 104.215 185.892 104.126C186.064 104.037 186.258 103.992 186.474 103.992C186.722 103.992 186.947 104.054 187.15 104.178C187.356 104.298 187.518 104.468 187.635 104.688C187.752 104.908 187.81 105.161 187.81 105.446C187.81 105.732 187.752 105.988 187.635 106.215C187.518 106.438 187.356 106.614 187.15 106.741C186.947 106.865 186.722 106.926 186.474 106.926C186.258 106.926 186.065 106.883 185.897 106.797C185.728 106.708 185.591 106.598 185.484 106.467V108.231H184.896V104.038H185.484V104.456ZM187.212 105.446C187.212 105.25 187.171 105.082 187.088 104.941C187.009 104.796 186.903 104.688 186.768 104.616C186.638 104.54 186.497 104.502 186.346 104.502C186.198 104.502 186.057 104.54 185.923 104.616C185.792 104.692 185.685 104.802 185.603 104.946C185.524 105.09 185.484 105.261 185.484 105.457C185.484 105.653 185.524 105.824 185.603 105.972C185.685 106.117 185.792 106.227 185.923 106.302C186.057 106.378 186.198 106.416 186.346 106.416C186.497 106.416 186.638 106.378 186.768 106.302C186.903 106.223 187.009 106.11 187.088 105.962C187.171 105.814 187.212 105.642 187.212 105.446ZM189.485 106.926C189.262 106.926 189.061 106.887 188.882 106.808C188.706 106.725 188.567 106.615 188.464 106.478C188.361 106.337 188.306 106.18 188.299 106.008H188.908C188.918 106.129 188.975 106.23 189.078 106.313C189.184 106.392 189.317 106.431 189.475 106.431C189.64 106.431 189.767 106.4 189.857 106.338C189.949 106.273 189.996 106.191 189.996 106.091C189.996 105.984 189.944 105.905 189.841 105.854C189.741 105.802 189.581 105.745 189.361 105.684C189.148 105.625 188.975 105.568 188.841 105.513C188.706 105.458 188.59 105.374 188.49 105.261C188.394 105.147 188.345 104.998 188.345 104.812C188.345 104.661 188.39 104.523 188.48 104.399C188.569 104.272 188.696 104.172 188.861 104.1C189.03 104.028 189.222 103.992 189.439 103.992C189.762 103.992 190.022 104.074 190.218 104.239C190.417 104.401 190.524 104.623 190.537 104.905H189.949C189.939 104.778 189.887 104.676 189.795 104.6C189.702 104.525 189.576 104.487 189.418 104.487C189.263 104.487 189.145 104.516 189.062 104.575C188.98 104.633 188.939 104.71 188.939 104.807C188.939 104.882 188.966 104.946 189.021 104.998C189.076 105.049 189.143 105.09 189.222 105.121C189.301 105.149 189.418 105.185 189.573 105.23C189.779 105.285 189.948 105.341 190.078 105.4C190.212 105.455 190.328 105.537 190.424 105.647C190.52 105.757 190.57 105.904 190.573 106.086C190.573 106.247 190.529 106.392 190.439 106.519C190.35 106.646 190.223 106.746 190.058 106.818C189.896 106.89 189.705 106.926 189.485 106.926ZM193.844 104.038V106.88H193.256V106.545C193.164 106.662 193.041 106.755 192.89 106.823C192.742 106.889 192.584 106.921 192.416 106.921C192.192 106.921 191.991 106.875 191.812 106.782C191.637 106.689 191.498 106.552 191.395 106.369C191.295 106.187 191.245 105.967 191.245 105.709V104.038H191.828V105.622C191.828 105.876 191.891 106.072 192.019 106.21C192.146 106.344 192.319 106.411 192.54 106.411C192.76 106.411 192.933 106.344 193.06 106.21C193.191 106.072 193.256 105.876 193.256 105.622V104.038H193.844ZM198.122 103.992C198.346 103.992 198.545 104.038 198.72 104.131C198.899 104.224 199.038 104.362 199.138 104.544C199.241 104.726 199.293 104.946 199.293 105.204V106.88H198.71V105.292C198.71 105.037 198.646 104.843 198.519 104.709C198.392 104.571 198.218 104.502 197.998 104.502C197.778 104.502 197.603 104.571 197.472 104.709C197.345 104.843 197.281 105.037 197.281 105.292V106.88H196.699V105.292C196.699 105.037 196.635 104.843 196.508 104.709C196.381 104.571 196.207 104.502 195.987 104.502C195.767 104.502 195.592 104.571 195.461 104.709C195.334 104.843 195.27 105.037 195.27 105.292V106.88H194.682V104.038H195.27V104.363C195.366 104.246 195.488 104.155 195.636 104.09C195.784 104.025 195.942 103.992 196.111 103.992C196.338 103.992 196.541 104.04 196.719 104.136C196.898 104.233 197.036 104.372 197.132 104.554C197.218 104.382 197.352 104.246 197.534 104.147C197.716 104.043 197.912 103.992 198.122 103.992ZM201.309 105.446C201.309 105.161 201.367 104.908 201.484 104.688C201.605 104.468 201.766 104.298 201.969 104.178C202.175 104.054 202.404 103.992 202.655 103.992C202.841 103.992 203.023 104.033 203.202 104.116C203.384 104.195 203.528 104.301 203.635 104.435V103.064H204.228V106.88H203.635V106.452C203.539 106.589 203.404 106.703 203.233 106.792C203.064 106.882 202.87 106.926 202.65 106.926C202.402 106.926 202.175 106.865 201.969 106.741C201.766 106.614 201.605 106.438 201.484 106.215C201.367 105.988 201.309 105.732 201.309 105.446ZM203.635 105.457C203.635 105.261 203.594 105.09 203.511 104.946C203.432 104.802 203.327 104.692 203.196 104.616C203.066 104.54 202.925 104.502 202.774 104.502C202.622 104.502 202.481 104.54 202.351 104.616C202.22 104.688 202.113 104.796 202.031 104.941C201.952 105.082 201.912 105.25 201.912 105.446C201.912 105.642 201.952 105.814 202.031 105.962C202.113 106.11 202.22 106.223 202.351 106.302C202.485 106.378 202.626 106.416 202.774 106.416C202.925 106.416 203.066 106.378 203.196 106.302C203.327 106.227 203.432 106.117 203.511 105.972C203.594 105.824 203.635 105.653 203.635 105.457ZM206.295 106.926C206.027 106.926 205.784 106.866 205.568 106.746C205.351 106.622 205.181 106.45 205.057 106.23C204.933 106.007 204.871 105.749 204.871 105.457C204.871 105.168 204.935 104.912 205.062 104.688C205.189 104.465 205.363 104.293 205.583 104.172C205.803 104.052 206.049 103.992 206.321 103.992C206.592 103.992 206.838 104.052 207.058 104.172C207.278 104.293 207.452 104.465 207.579 104.688C207.706 104.912 207.77 105.168 207.77 105.457C207.77 105.745 207.705 106.002 207.574 106.225C207.443 106.449 207.264 106.622 207.038 106.746C206.814 106.866 206.566 106.926 206.295 106.926ZM206.295 106.416C206.446 106.416 206.587 106.38 206.718 106.308C206.852 106.235 206.96 106.127 207.043 105.983C207.125 105.838 207.166 105.663 207.166 105.457C207.166 105.25 207.127 105.077 207.048 104.936C206.969 104.791 206.864 104.683 206.733 104.611C206.603 104.539 206.462 104.502 206.31 104.502C206.159 104.502 206.018 104.539 205.887 104.611C205.76 104.683 205.659 104.791 205.583 104.936C205.508 105.077 205.47 105.25 205.47 105.457C205.47 105.763 205.547 106 205.702 106.168C205.86 106.333 206.058 106.416 206.295 106.416ZM209.001 103.064V106.88H208.413V103.064H209.001ZM211.068 106.926C210.8 106.926 210.557 106.866 210.341 106.746C210.124 106.622 209.954 106.45 209.83 106.23C209.706 106.007 209.644 105.749 209.644 105.457C209.644 105.168 209.708 104.912 209.835 104.688C209.962 104.465 210.136 104.293 210.356 104.172C210.576 104.052 210.822 103.992 211.094 103.992C211.365 103.992 211.611 104.052 211.831 104.172C212.051 104.293 212.225 104.465 212.352 104.688C212.479 104.912 212.543 105.168 212.543 105.457C212.543 105.745 212.477 106.002 212.347 106.225C212.216 106.449 212.037 106.622 211.81 106.746C211.587 106.866 211.339 106.926 211.068 106.926ZM211.068 106.416C211.219 106.416 211.36 106.38 211.491 106.308C211.625 106.235 211.733 106.127 211.816 105.983C211.898 105.838 211.939 105.663 211.939 105.457C211.939 105.25 211.9 105.077 211.821 104.936C211.742 104.791 211.637 104.683 211.506 104.611C211.375 104.539 211.235 104.502 211.083 104.502C210.932 104.502 210.791 104.539 210.66 104.611C210.533 104.683 210.432 104.791 210.356 104.936C210.28 105.077 210.243 105.25 210.243 105.457C210.243 105.763 210.32 106 210.475 106.168C210.633 106.333 210.831 106.416 211.068 106.416ZM213.774 104.451C213.86 104.306 213.973 104.195 214.114 104.116C214.259 104.033 214.429 103.992 214.625 103.992V104.6H214.475C214.245 104.6 214.07 104.659 213.949 104.776C213.832 104.893 213.774 105.096 213.774 105.384V106.88H213.186V104.038H213.774V104.451ZM217.661 106.926C217.437 106.926 217.236 106.887 217.057 106.808C216.882 106.725 216.743 106.615 216.64 106.478C216.536 106.337 216.481 106.18 216.475 106.008H217.083C217.093 106.129 217.15 106.23 217.253 106.313C217.36 106.392 217.492 106.431 217.65 106.431C217.815 106.431 217.943 106.4 218.032 106.338C218.125 106.273 218.171 106.191 218.171 106.091C218.171 105.984 218.12 105.905 218.017 105.854C217.917 105.802 217.757 105.745 217.537 105.684C217.324 105.625 217.15 105.568 217.016 105.513C216.882 105.458 216.765 105.374 216.665 105.261C216.569 105.147 216.521 104.998 216.521 104.812C216.521 104.661 216.566 104.523 216.655 104.399C216.744 104.272 216.872 104.172 217.037 104.1C217.205 104.028 217.398 103.992 217.614 103.992C217.938 103.992 218.197 104.074 218.393 104.239C218.593 104.401 218.699 104.623 218.713 104.905H218.125C218.115 104.778 218.063 104.676 217.97 104.6C217.877 104.525 217.752 104.487 217.594 104.487C217.439 104.487 217.32 104.516 217.238 104.575C217.155 104.633 217.114 104.71 217.114 104.807C217.114 104.882 217.142 104.946 217.197 104.998C217.252 105.049 217.319 105.09 217.398 105.121C217.477 105.149 217.594 105.185 217.748 105.23C217.955 105.285 218.123 105.341 218.254 105.4C218.388 105.455 218.503 105.537 218.599 105.647C218.696 105.757 218.746 105.904 218.749 106.086C218.749 106.247 218.704 106.392 218.615 106.519C218.525 106.646 218.398 106.746 218.233 106.818C218.072 106.89 217.881 106.926 217.661 106.926ZM219.745 103.662C219.639 103.662 219.55 103.626 219.477 103.554C219.405 103.481 219.369 103.392 219.369 103.285C219.369 103.179 219.405 103.089 219.477 103.017C219.55 102.945 219.639 102.909 219.745 102.909C219.849 102.909 219.936 102.945 220.009 103.017C220.081 103.089 220.117 103.179 220.117 103.285C220.117 103.392 220.081 103.481 220.009 103.554C219.936 103.626 219.849 103.662 219.745 103.662ZM220.034 104.038V106.88H219.446V104.038H220.034ZM221.554 104.518V106.091C221.554 106.198 221.578 106.275 221.626 106.323C221.678 106.368 221.764 106.39 221.884 106.39H222.245V106.88H221.781C221.516 106.88 221.314 106.818 221.173 106.694C221.032 106.571 220.961 106.369 220.961 106.091V104.518H220.626V104.038H220.961V103.332H221.554V104.038H222.245V104.518H221.554ZM224.055 105.446C224.055 105.161 224.114 104.908 224.23 104.688C224.351 104.468 224.512 104.298 224.715 104.178C224.922 104.054 225.148 103.992 225.396 103.992C225.62 103.992 225.814 104.037 225.979 104.126C226.147 104.212 226.281 104.32 226.381 104.451V104.038H226.974V106.88H226.381V106.457C226.281 106.591 226.146 106.703 225.974 106.792C225.802 106.882 225.606 106.926 225.386 106.926C225.142 106.926 224.918 106.865 224.715 106.741C224.512 106.614 224.351 106.438 224.23 106.215C224.114 105.988 224.055 105.732 224.055 105.446ZM226.381 105.457C226.381 105.261 226.34 105.09 226.257 104.946C226.178 104.802 226.073 104.692 225.943 104.616C225.812 104.54 225.671 104.502 225.52 104.502C225.369 104.502 225.228 104.54 225.097 104.616C224.966 104.688 224.86 104.796 224.777 104.941C224.698 105.082 224.659 105.25 224.659 105.446C224.659 105.642 224.698 105.814 224.777 105.962C224.86 106.11 224.966 106.223 225.097 106.302C225.231 106.378 225.372 106.416 225.52 106.416C225.671 106.416 225.812 106.378 225.943 106.302C226.073 106.227 226.178 106.117 226.257 105.972C226.34 105.824 226.381 105.653 226.381 105.457ZM264.797 105.39C264.797 105.496 264.79 105.592 264.776 105.678H262.605C262.622 105.905 262.706 106.087 262.858 106.225C263.009 106.363 263.195 106.431 263.415 106.431C263.731 106.431 263.954 106.299 264.085 106.034H264.719C264.633 106.296 264.477 106.51 264.25 106.679C264.027 106.844 263.748 106.926 263.415 106.926C263.143 106.926 262.899 106.866 262.682 106.746C262.469 106.622 262.301 106.45 262.177 106.23C262.057 106.007 261.996 105.749 261.996 105.457C261.996 105.164 262.055 104.908 262.172 104.688C262.292 104.465 262.459 104.293 262.672 104.172C262.889 104.052 263.136 103.992 263.415 103.992C263.683 103.992 263.922 104.05 264.131 104.167C264.341 104.284 264.505 104.449 264.621 104.662C264.738 104.872 264.797 105.114 264.797 105.39ZM264.183 105.204C264.18 104.987 264.102 104.814 263.951 104.683C263.8 104.552 263.612 104.487 263.389 104.487C263.186 104.487 263.012 104.552 262.868 104.683C262.724 104.81 262.638 104.984 262.61 105.204H264.183ZM266.123 104.518V106.091C266.123 106.198 266.147 106.275 266.196 106.323C266.247 106.368 266.333 106.39 266.453 106.39H266.814V106.88H266.35C266.086 106.88 265.883 106.818 265.742 106.694C265.601 106.571 265.53 106.369 265.53 106.091V104.518H265.195V104.038H265.53V103.332H266.123V104.038H266.814V104.518H266.123ZM269.992 104.038V106.88H269.404V106.545C269.311 106.662 269.189 106.755 269.038 106.823C268.89 106.889 268.732 106.921 268.563 106.921C268.34 106.921 268.139 106.875 267.96 106.782C267.785 106.689 267.645 106.552 267.542 106.369C267.443 106.187 267.393 105.967 267.393 105.709V104.038H267.975V105.622C267.975 105.876 268.039 106.072 268.166 106.21C268.294 106.344 268.467 106.411 268.687 106.411C268.907 106.411 269.081 106.344 269.208 106.21C269.339 106.072 269.404 105.876 269.404 105.622V104.038H269.992ZM271.418 104.451C271.504 104.306 271.617 104.195 271.758 104.116C271.903 104.033 272.073 103.992 272.269 103.992V104.6H272.119C271.889 104.6 271.713 104.659 271.593 104.776C271.476 104.893 271.418 105.096 271.418 105.384V106.88H270.83V104.038H271.418V104.451ZM274.077 105.446C274.077 105.161 274.136 104.908 274.252 104.688C274.373 104.468 274.534 104.298 274.737 104.178C274.944 104.054 275.17 103.992 275.418 103.992C275.641 103.992 275.836 104.037 276.001 104.126C276.169 104.212 276.303 104.32 276.403 104.451V104.038H276.996V106.88H276.403V106.457C276.303 106.591 276.168 106.703 275.996 106.792C275.824 106.882 275.628 106.926 275.408 106.926C275.164 106.926 274.94 106.865 274.737 106.741C274.534 106.614 274.373 106.438 274.252 106.215C274.136 105.988 274.077 105.732 274.077 105.446ZM276.403 105.457C276.403 105.261 276.362 105.09 276.279 104.946C276.2 104.802 276.095 104.692 275.965 104.616C275.834 104.54 275.693 104.502 275.542 104.502C275.391 104.502 275.25 104.54 275.119 104.616C274.988 104.688 274.882 104.796 274.799 104.941C274.72 105.082 274.681 105.25 274.681 105.446C274.681 105.642 274.72 105.814 274.799 105.962C274.882 106.11 274.988 106.223 275.119 106.302C275.253 106.378 275.394 106.416 275.542 106.416C275.693 106.416 275.834 106.378 275.965 106.302C276.095 106.227 276.2 106.117 276.279 105.972C276.362 105.824 276.403 105.653 276.403 105.457ZM277.635 105.446C277.635 105.161 277.693 104.908 277.81 104.688C277.93 104.468 278.092 104.298 278.295 104.178C278.501 104.054 278.73 103.992 278.981 103.992C279.166 103.992 279.348 104.033 279.527 104.116C279.709 104.195 279.854 104.301 279.96 104.435V103.064H280.554V106.88H279.96V106.452C279.864 106.589 279.73 106.703 279.558 106.792C279.39 106.882 279.195 106.926 278.975 106.926C278.728 106.926 278.501 106.865 278.295 106.741C278.092 106.614 277.93 106.438 277.81 106.215C277.693 105.988 277.635 105.732 277.635 105.446ZM279.96 105.457C279.96 105.261 279.919 105.09 279.837 104.946C279.758 104.802 279.653 104.692 279.522 104.616C279.391 104.54 279.25 104.502 279.099 104.502C278.948 104.502 278.807 104.54 278.676 104.616C278.546 104.688 278.439 104.796 278.357 104.941C278.277 105.082 278.238 105.25 278.238 105.446C278.238 105.642 278.277 105.814 278.357 105.962C278.439 106.11 278.546 106.223 278.676 106.302C278.81 106.378 278.951 106.416 279.099 106.416C279.25 106.416 279.391 106.378 279.522 106.302C279.653 106.227 279.758 106.117 279.837 105.972C279.919 105.824 279.96 105.653 279.96 105.457ZM281.687 103.662C281.58 103.662 281.491 103.626 281.419 103.554C281.347 103.481 281.311 103.392 281.311 103.285C281.311 103.179 281.347 103.089 281.419 103.017C281.491 102.945 281.58 102.909 281.687 102.909C281.79 102.909 281.878 102.945 281.95 103.017C282.022 103.089 282.058 103.179 282.058 103.285C282.058 103.392 282.022 103.481 281.95 103.554C281.878 103.626 281.79 103.662 281.687 103.662ZM281.976 104.038V106.88H281.388V104.038H281.976ZM283.398 104.456C283.498 104.325 283.633 104.215 283.805 104.126C283.977 104.037 284.171 103.992 284.388 103.992C284.636 103.992 284.861 104.054 285.064 104.178C285.27 104.298 285.432 104.468 285.548 104.688C285.665 104.908 285.724 105.161 285.724 105.446C285.724 105.732 285.665 105.988 285.548 106.215C285.432 106.438 285.27 106.614 285.064 106.741C284.861 106.865 284.636 106.926 284.388 106.926C284.171 106.926 283.979 106.883 283.81 106.797C283.642 106.708 283.504 106.598 283.398 106.467V108.231H282.81V104.038H283.398V104.456ZM285.126 105.446C285.126 105.25 285.084 105.082 285.002 104.941C284.923 104.796 284.816 104.688 284.682 104.616C284.551 104.54 284.41 104.502 284.259 104.502C284.111 104.502 283.97 104.54 283.836 104.616C283.706 104.692 283.599 104.802 283.516 104.946C283.437 105.09 283.398 105.261 283.398 105.457C283.398 105.653 283.437 105.824 283.516 105.972C283.599 106.117 283.706 106.227 283.836 106.302C283.97 106.378 284.111 106.416 284.259 106.416C284.41 106.416 284.551 106.378 284.682 106.302C284.816 106.223 284.923 106.11 285.002 105.962C285.084 105.814 285.126 105.642 285.126 105.446ZM286.666 103.662C286.56 103.662 286.47 103.626 286.398 103.554C286.326 103.481 286.29 103.392 286.29 103.285C286.29 103.179 286.326 103.089 286.398 103.017C286.47 102.945 286.56 102.909 286.666 102.909C286.77 102.909 286.857 102.945 286.929 103.017C287.002 103.089 287.038 103.179 287.038 103.285C287.038 103.392 287.002 103.481 286.929 103.554C286.857 103.626 286.77 103.662 286.666 103.662ZM286.955 104.038V106.88H286.367V104.038H286.955ZM165.465 112.446C165.465 112.161 165.523 111.908 165.64 111.688C165.76 111.468 165.922 111.298 166.125 111.178C166.331 111.054 166.56 110.992 166.811 110.992C166.996 110.992 167.178 111.033 167.357 111.116C167.539 111.195 167.684 111.301 167.79 111.435V110.064H168.384V113.88H167.79V113.452C167.694 113.589 167.56 113.703 167.388 113.792C167.22 113.882 167.025 113.926 166.805 113.926C166.558 113.926 166.331 113.865 166.125 113.741C165.922 113.614 165.76 113.438 165.64 113.215C165.523 112.988 165.465 112.732 165.465 112.446ZM167.79 112.457C167.79 112.261 167.749 112.09 167.667 111.946C167.588 111.802 167.483 111.692 167.352 111.616C167.221 111.54 167.08 111.502 166.929 111.502C166.778 111.502 166.637 111.54 166.506 111.616C166.376 111.688 166.269 111.796 166.187 111.941C166.107 112.082 166.068 112.25 166.068 112.446C166.068 112.642 166.107 112.814 166.187 112.962C166.269 113.11 166.376 113.223 166.506 113.302C166.64 113.378 166.781 113.416 166.929 113.416C167.08 113.416 167.221 113.378 167.352 113.302C167.483 113.227 167.588 113.117 167.667 112.972C167.749 112.824 167.79 112.653 167.79 112.457ZM170.45 113.926C170.182 113.926 169.94 113.866 169.723 113.746C169.507 113.622 169.337 113.45 169.213 113.23C169.089 113.007 169.027 112.749 169.027 112.457C169.027 112.168 169.091 111.912 169.218 111.688C169.345 111.465 169.519 111.293 169.739 111.172C169.959 111.052 170.205 110.992 170.476 110.992C170.748 110.992 170.994 111.052 171.214 111.172C171.434 111.293 171.607 111.465 171.735 111.688C171.862 111.912 171.925 112.168 171.925 112.457C171.925 112.745 171.86 113.002 171.73 113.225C171.599 113.449 171.42 113.622 171.193 113.746C170.97 113.866 170.722 113.926 170.45 113.926ZM170.45 113.416C170.602 113.416 170.743 113.38 170.873 113.308C171.007 113.235 171.116 113.127 171.198 112.983C171.281 112.838 171.322 112.663 171.322 112.457C171.322 112.25 171.283 112.077 171.203 111.936C171.124 111.791 171.02 111.683 170.889 111.611C170.758 111.539 170.617 111.502 170.466 111.502C170.315 111.502 170.174 111.539 170.043 111.611C169.916 111.683 169.814 111.791 169.739 111.936C169.663 112.077 169.625 112.25 169.625 112.457C169.625 112.763 169.703 113 169.857 113.168C170.016 113.333 170.213 113.416 170.45 113.416ZM176.575 112.39C176.575 112.496 176.568 112.592 176.554 112.678H174.383C174.4 112.905 174.485 113.087 174.636 113.225C174.787 113.363 174.973 113.431 175.193 113.431C175.509 113.431 175.733 113.299 175.863 113.034H176.498C176.412 113.296 176.255 113.51 176.028 113.679C175.805 113.844 175.526 113.926 175.193 113.926C174.921 113.926 174.677 113.866 174.461 113.746C174.247 113.622 174.079 113.45 173.955 113.23C173.835 113.007 173.775 112.749 173.775 112.457C173.775 112.164 173.833 111.908 173.95 111.688C174.07 111.465 174.237 111.293 174.45 111.172C174.667 111.052 174.914 110.992 175.193 110.992C175.461 110.992 175.7 111.05 175.91 111.167C176.12 111.284 176.283 111.449 176.4 111.662C176.517 111.872 176.575 112.114 176.575 112.39ZM175.961 112.204C175.958 111.987 175.881 111.814 175.729 111.683C175.578 111.552 175.391 111.487 175.167 111.487C174.964 111.487 174.791 111.552 174.646 111.683C174.502 111.81 174.416 111.984 174.388 112.204H175.961ZM177.515 110.662C177.408 110.662 177.319 110.626 177.247 110.554C177.175 110.481 177.138 110.392 177.138 110.285C177.138 110.179 177.175 110.089 177.247 110.017C177.319 109.945 177.408 109.909 177.515 109.909C177.618 109.909 177.706 109.945 177.778 110.017C177.85 110.089 177.886 110.179 177.886 110.285C177.886 110.392 177.85 110.481 177.778 110.554C177.706 110.626 177.618 110.662 177.515 110.662ZM177.804 111.038V113.88H177.216V111.038H177.804ZM181.211 111.038V113.88H180.623V113.545C180.53 113.662 180.408 113.755 180.257 113.823C180.109 113.889 179.951 113.921 179.783 113.921C179.559 113.921 179.358 113.875 179.179 113.782C179.004 113.689 178.865 113.552 178.761 113.369C178.662 113.187 178.612 112.967 178.612 112.709V111.038H179.195V112.622C179.195 112.876 179.258 113.072 179.386 113.21C179.513 113.344 179.686 113.411 179.906 113.411C180.126 113.411 180.3 113.344 180.427 113.21C180.558 113.072 180.623 112.876 180.623 112.622V111.038H181.211ZM183.081 113.926C182.857 113.926 182.656 113.887 182.477 113.808C182.302 113.725 182.163 113.615 182.059 113.478C181.956 113.337 181.901 113.18 181.894 113.008H182.503C182.513 113.129 182.57 113.23 182.673 113.313C182.78 113.392 182.912 113.431 183.07 113.431C183.235 113.431 183.362 113.4 183.452 113.338C183.545 113.273 183.591 113.191 183.591 113.091C183.591 112.984 183.54 112.905 183.436 112.854C183.337 112.802 183.177 112.745 182.957 112.684C182.744 112.625 182.57 112.568 182.436 112.513C182.302 112.458 182.185 112.374 182.085 112.261C181.989 112.147 181.941 111.998 181.941 111.812C181.941 111.661 181.985 111.523 182.075 111.399C182.164 111.272 182.291 111.172 182.457 111.1C182.625 111.028 182.818 110.992 183.034 110.992C183.357 110.992 183.617 111.074 183.813 111.239C184.012 111.401 184.119 111.623 184.133 111.905H183.545C183.534 111.778 183.483 111.676 183.39 111.6C183.297 111.525 183.172 111.487 183.013 111.487C182.859 111.487 182.74 111.516 182.658 111.575C182.575 111.633 182.534 111.71 182.534 111.807C182.534 111.882 182.561 111.946 182.616 111.998C182.671 112.049 182.738 112.09 182.818 112.121C182.897 112.149 183.013 112.185 183.168 112.23C183.375 112.285 183.543 112.341 183.674 112.4C183.808 112.455 183.923 112.537 184.019 112.647C184.115 112.757 184.165 112.904 184.169 113.086C184.169 113.247 184.124 113.392 184.035 113.519C183.945 113.646 183.818 113.746 183.653 113.818C183.491 113.89 183.301 113.926 183.081 113.926ZM188.306 110.992C188.53 110.992 188.729 111.038 188.904 111.131C189.083 111.224 189.222 111.362 189.322 111.544C189.425 111.726 189.477 111.946 189.477 112.204V113.88H188.894V112.292C188.894 112.037 188.83 111.843 188.703 111.709C188.576 111.571 188.402 111.502 188.182 111.502C187.962 111.502 187.787 111.571 187.656 111.709C187.529 111.843 187.465 112.037 187.465 112.292V113.88H186.883V112.292C186.883 112.037 186.819 111.843 186.692 111.709C186.565 111.571 186.391 111.502 186.171 111.502C185.951 111.502 185.776 111.571 185.645 111.709C185.518 111.843 185.454 112.037 185.454 112.292V113.88H184.866V111.038H185.454V111.363C185.55 111.246 185.672 111.155 185.82 111.09C185.968 111.025 186.126 110.992 186.295 110.992C186.522 110.992 186.724 111.04 186.903 111.136C187.082 111.233 187.22 111.372 187.316 111.554C187.402 111.382 187.536 111.246 187.718 111.147C187.9 111.043 188.096 110.992 188.306 110.992ZM191.52 113.926C191.251 113.926 191.009 113.866 190.792 113.746C190.576 113.622 190.406 113.45 190.282 113.23C190.158 113.007 190.096 112.749 190.096 112.457C190.096 112.168 190.16 111.912 190.287 111.688C190.414 111.465 190.588 111.293 190.808 111.172C191.028 111.052 191.274 110.992 191.545 110.992C191.817 110.992 192.063 111.052 192.283 111.172C192.503 111.293 192.677 111.465 192.804 111.688C192.931 111.912 192.995 112.168 192.995 112.457C192.995 112.745 192.929 113.002 192.799 113.225C192.668 113.449 192.489 113.622 192.262 113.746C192.039 113.866 191.791 113.926 191.52 113.926ZM191.52 113.416C191.671 113.416 191.812 113.38 191.943 113.308C192.077 113.235 192.185 113.127 192.267 112.983C192.35 112.838 192.391 112.663 192.391 112.457C192.391 112.25 192.352 112.077 192.273 111.936C192.194 111.791 192.089 111.683 191.958 111.611C191.827 111.539 191.686 111.502 191.535 111.502C191.384 111.502 191.243 111.539 191.112 111.611C190.985 111.683 190.884 111.791 190.808 111.936C190.732 112.077 190.694 112.25 190.694 112.457C190.694 112.763 190.772 113 190.927 113.168C191.085 113.333 191.282 113.416 191.52 113.416ZM193.442 112.446C193.442 112.161 193.5 111.908 193.617 111.688C193.738 111.468 193.899 111.298 194.102 111.178C194.308 111.054 194.537 110.992 194.788 110.992C194.974 110.992 195.156 111.033 195.335 111.116C195.517 111.195 195.661 111.301 195.768 111.435V110.064H196.361V113.88H195.768V113.452C195.672 113.589 195.538 113.703 195.366 113.792C195.197 113.882 195.003 113.926 194.783 113.926C194.535 113.926 194.308 113.865 194.102 113.741C193.899 113.614 193.738 113.438 193.617 113.215C193.5 112.988 193.442 112.732 193.442 112.446ZM195.768 112.457C195.768 112.261 195.727 112.09 195.644 111.946C195.565 111.802 195.46 111.692 195.33 111.616C195.199 111.54 195.058 111.502 194.907 111.502C194.755 111.502 194.614 111.54 194.484 111.616C194.353 111.688 194.247 111.796 194.164 111.941C194.085 112.082 194.045 112.25 194.045 112.446C194.045 112.642 194.085 112.814 194.164 112.962C194.247 113.11 194.353 113.223 194.484 113.302C194.618 113.378 194.759 113.416 194.907 113.416C195.058 113.416 195.199 113.378 195.33 113.302C195.46 113.227 195.565 113.117 195.644 112.972C195.727 112.824 195.768 112.653 195.768 112.457Z" fill="black"/>
<path d="M231.248 103.992C231.472 103.992 231.671 104.038 231.847 104.131C232.026 104.224 232.165 104.362 232.264 104.544C232.368 104.726 232.419 104.946 232.419 105.204V106.88H231.836V105.292C231.836 105.037 231.773 104.843 231.646 104.709C231.518 104.571 231.345 104.502 231.125 104.502C230.905 104.502 230.729 104.571 230.599 104.709C230.471 104.843 230.408 105.037 230.408 105.292V106.88H229.825V105.292C229.825 105.037 229.761 104.843 229.634 104.709C229.507 104.571 229.333 104.502 229.113 104.502C228.893 104.502 228.718 104.571 228.587 104.709C228.46 104.843 228.396 105.037 228.396 105.292V106.88H227.809V104.038H228.396V104.363C228.493 104.246 228.615 104.155 228.763 104.09C228.91 104.025 229.069 103.992 229.237 103.992C229.464 103.992 229.667 104.04 229.846 104.136C230.024 104.233 230.162 104.372 230.258 104.554C230.344 104.382 230.478 104.246 230.661 104.147C230.843 104.043 231.039 103.992 231.248 103.992ZM235.834 105.39C235.834 105.496 235.827 105.592 235.813 105.678H233.642C233.659 105.905 233.743 106.087 233.895 106.225C234.046 106.363 234.232 106.431 234.452 106.431C234.768 106.431 234.992 106.299 235.122 106.034H235.757C235.671 106.296 235.514 106.51 235.287 106.679C235.064 106.844 234.785 106.926 234.452 106.926C234.18 106.926 233.936 106.866 233.719 106.746C233.506 106.622 233.338 106.45 233.214 106.23C233.094 106.007 233.033 105.749 233.033 105.457C233.033 105.164 233.092 104.908 233.209 104.688C233.329 104.465 233.496 104.293 233.709 104.172C233.926 104.052 234.173 103.992 234.452 103.992C234.72 103.992 234.959 104.05 235.169 104.167C235.378 104.284 235.542 104.449 235.659 104.662C235.775 104.872 235.834 105.114 235.834 105.39ZM235.22 105.204C235.217 104.987 235.139 104.814 234.988 104.683C234.837 104.552 234.649 104.487 234.426 104.487C234.223 104.487 234.049 104.552 233.905 104.683C233.761 104.81 233.675 104.984 233.647 105.204H235.22ZM237.161 104.518V106.091C237.161 106.198 237.185 106.275 237.233 106.323C237.284 106.368 237.37 106.39 237.491 106.39H237.852V106.88H237.387C237.123 106.88 236.92 106.818 236.779 106.694C236.638 106.571 236.567 106.369 236.567 106.091V104.518H236.232V104.038H236.567V103.332H237.161V104.038H237.852V104.518H237.161ZM239.1 106.173L238.476 107.597H238.095L238.461 106.173H239.1ZM240.882 105.457C240.882 105.164 240.94 104.908 241.057 104.688C241.178 104.465 241.343 104.293 241.552 104.172C241.762 104.052 242.003 103.992 242.274 103.992C242.618 103.992 242.902 104.074 243.125 104.239C243.352 104.401 243.505 104.633 243.584 104.936H242.95C242.898 104.795 242.816 104.685 242.702 104.606C242.589 104.527 242.446 104.487 242.274 104.487C242.034 104.487 241.841 104.573 241.697 104.745C241.556 104.913 241.485 105.151 241.485 105.457C241.485 105.763 241.556 106.002 241.697 106.173C241.841 106.345 242.034 106.431 242.274 106.431C242.615 106.431 242.84 106.282 242.95 105.983H243.584C243.502 106.271 243.347 106.502 243.12 106.674C242.893 106.842 242.611 106.926 242.274 106.926C242.003 106.926 241.762 106.866 241.552 106.746C241.343 106.622 241.178 106.45 241.057 106.23C240.94 106.007 240.882 105.749 240.882 105.457ZM245.465 106.926C245.197 106.926 244.954 106.866 244.738 106.746C244.521 106.622 244.351 106.45 244.227 106.23C244.103 106.007 244.042 105.749 244.042 105.457C244.042 105.168 244.105 104.912 244.232 104.688C244.36 104.465 244.533 104.293 244.753 104.172C244.973 104.052 245.219 103.992 245.491 103.992C245.762 103.992 246.008 104.052 246.228 104.172C246.448 104.293 246.622 104.465 246.749 104.688C246.876 104.912 246.94 105.168 246.94 105.457C246.94 105.745 246.875 106.002 246.744 106.225C246.613 106.449 246.435 106.622 246.208 106.746C245.984 106.866 245.737 106.926 245.465 106.926ZM245.465 106.416C245.616 106.416 245.757 106.38 245.888 106.308C246.022 106.235 246.13 106.127 246.213 105.983C246.295 105.838 246.337 105.663 246.337 105.457C246.337 105.25 246.297 105.077 246.218 104.936C246.139 104.791 246.034 104.683 245.903 104.611C245.773 104.539 245.632 104.502 245.48 104.502C245.329 104.502 245.188 104.539 245.058 104.611C244.93 104.683 244.829 104.791 244.753 104.936C244.678 105.077 244.64 105.25 244.64 105.457C244.64 105.763 244.717 106 244.872 106.168C245.03 106.333 245.228 106.416 245.465 106.416ZM249.017 103.992C249.241 103.992 249.44 104.038 249.615 104.131C249.794 104.224 249.933 104.362 250.033 104.544C250.133 104.726 250.183 104.946 250.183 105.204V106.88H249.6V105.292C249.6 105.037 249.536 104.843 249.409 104.709C249.282 104.571 249.108 104.502 248.888 104.502C248.668 104.502 248.493 104.571 248.362 104.709C248.235 104.843 248.171 105.037 248.171 105.292V106.88H247.583V104.038H248.171V104.363C248.267 104.246 248.39 104.155 248.537 104.09C248.689 104.025 248.849 103.992 249.017 103.992ZM252.026 106.926C251.803 106.926 251.601 106.887 251.423 106.808C251.247 106.725 251.108 106.615 251.005 106.478C250.902 106.337 250.847 106.18 250.84 106.008H251.448C251.459 106.129 251.516 106.23 251.619 106.313C251.725 106.392 251.858 106.431 252.016 106.431C252.181 106.431 252.308 106.4 252.397 106.338C252.49 106.273 252.537 106.191 252.537 106.091C252.537 105.984 252.485 105.905 252.382 105.854C252.282 105.802 252.122 105.745 251.902 105.684C251.689 105.625 251.516 105.568 251.381 105.513C251.247 105.458 251.13 105.374 251.031 105.261C250.934 105.147 250.886 104.998 250.886 104.812C250.886 104.661 250.931 104.523 251.02 104.399C251.11 104.272 251.237 104.172 251.402 104.1C251.571 104.028 251.763 103.992 251.98 103.992C252.303 103.992 252.562 104.074 252.758 104.239C252.958 104.401 253.064 104.623 253.078 104.905H252.49C252.48 104.778 252.428 104.676 252.336 104.6C252.243 104.525 252.117 104.487 251.959 104.487C251.804 104.487 251.686 104.516 251.603 104.575C251.521 104.633 251.479 104.71 251.479 104.807C251.479 104.882 251.507 104.946 251.562 104.998C251.617 105.049 251.684 105.09 251.763 105.121C251.842 105.149 251.959 105.185 252.114 105.23C252.32 105.285 252.489 105.341 252.619 105.4C252.753 105.455 252.868 105.537 252.965 105.647C253.061 105.757 253.111 105.904 253.114 106.086C253.114 106.247 253.07 106.392 252.98 106.519C252.891 106.646 252.764 106.746 252.599 106.818C252.437 106.89 252.246 106.926 252.026 106.926ZM256.416 105.39C256.416 105.496 256.409 105.592 256.396 105.678H254.224C254.241 105.905 254.326 106.087 254.477 106.225C254.628 106.363 254.814 106.431 255.034 106.431C255.35 106.431 255.574 106.299 255.704 106.034H256.339C256.253 106.296 256.096 106.51 255.869 106.679C255.646 106.844 255.367 106.926 255.034 106.926C254.762 106.926 254.518 106.866 254.302 106.746C254.088 106.622 253.92 106.45 253.796 106.23C253.676 106.007 253.616 105.749 253.616 105.457C253.616 105.164 253.674 104.908 253.791 104.688C253.911 104.465 254.078 104.293 254.291 104.172C254.508 104.052 254.755 103.992 255.034 103.992C255.302 103.992 255.541 104.05 255.751 104.167C255.961 104.284 256.124 104.449 256.241 104.662C256.358 104.872 256.416 105.114 256.416 105.39ZM255.802 105.204C255.799 104.987 255.722 104.814 255.57 104.683C255.419 104.552 255.232 104.487 255.008 104.487C254.805 104.487 254.632 104.552 254.487 104.683C254.343 104.81 254.257 104.984 254.229 105.204H255.802ZM256.861 105.457C256.861 105.164 256.919 104.908 257.036 104.688C257.157 104.465 257.322 104.293 257.531 104.172C257.741 104.052 257.982 103.992 258.253 103.992C258.597 103.992 258.881 104.074 259.104 104.239C259.331 104.401 259.484 104.633 259.563 104.936H258.929C258.877 104.795 258.795 104.685 258.681 104.606C258.568 104.527 258.425 104.487 258.253 104.487C258.013 104.487 257.82 104.573 257.676 104.745C257.535 104.913 257.464 105.151 257.464 105.457C257.464 105.763 257.535 106.002 257.676 106.173C257.82 106.345 258.013 106.431 258.253 106.431C258.594 106.431 258.819 106.282 258.929 105.983H259.563C259.481 106.271 259.326 106.502 259.099 106.674C258.872 106.842 258.59 106.926 258.253 106.926C257.982 106.926 257.741 106.866 257.531 106.746C257.322 106.622 257.157 106.45 257.036 106.23C256.919 106.007 256.861 105.749 256.861 105.457ZM260.897 104.518V106.091C260.897 106.198 260.921 106.275 260.969 106.323C261.021 106.368 261.107 106.39 261.227 106.39H261.588V106.88H261.124C260.859 106.88 260.657 106.818 260.516 106.694C260.375 106.571 260.304 106.369 260.304 106.091V104.518H259.969V104.038H260.304V103.332H260.897V104.038H261.588V104.518H260.897Z" fill="#7200FF"/>
<path d="M288.821 106.926C288.597 106.926 288.396 106.887 288.217 106.808C288.042 106.725 287.903 106.615 287.8 106.478C287.696 106.337 287.641 106.18 287.635 106.008H288.243C288.253 106.129 288.31 106.23 288.413 106.313C288.52 106.392 288.652 106.431 288.81 106.431C288.975 106.431 289.103 106.4 289.192 106.338C289.285 106.273 289.331 106.191 289.331 106.091C289.331 105.984 289.28 105.905 289.177 105.854C289.077 105.802 288.917 105.745 288.697 105.684C288.484 105.625 288.31 105.568 288.176 105.513C288.042 105.458 287.925 105.374 287.825 105.261C287.729 105.147 287.681 104.998 287.681 104.812C287.681 104.661 287.726 104.523 287.815 104.399C287.904 104.272 288.032 104.172 288.197 104.1C288.365 104.028 288.558 103.992 288.774 103.992C289.097 103.992 289.357 104.074 289.553 104.239C289.752 104.401 289.859 104.623 289.873 104.905H289.285C289.275 104.778 289.223 104.676 289.13 104.6C289.037 104.525 288.912 104.487 288.754 104.487C288.599 104.487 288.48 104.516 288.398 104.575C288.315 104.633 288.274 104.71 288.274 104.807C288.274 104.882 288.302 104.946 288.357 104.998C288.412 105.049 288.479 105.09 288.558 105.121C288.637 105.149 288.754 105.185 288.908 105.23C289.115 105.285 289.283 105.341 289.414 105.4C289.548 105.455 289.663 105.537 289.759 105.647C289.856 105.757 289.905 105.904 289.909 106.086C289.909 106.247 289.864 106.392 289.775 106.519C289.685 106.646 289.558 106.746 289.393 106.818C289.232 106.89 289.041 106.926 288.821 106.926ZM290.41 105.457C290.41 105.164 290.469 104.908 290.586 104.688C290.706 104.465 290.871 104.293 291.081 104.172C291.29 104.052 291.531 103.992 291.803 103.992C292.147 103.992 292.43 104.074 292.654 104.239C292.881 104.401 293.034 104.633 293.113 104.936H292.478C292.427 104.795 292.344 104.685 292.231 104.606C292.117 104.527 291.975 104.487 291.803 104.487C291.562 104.487 291.37 104.573 291.225 104.745C291.084 104.913 291.014 105.151 291.014 105.457C291.014 105.763 291.084 106.002 291.225 106.173C291.37 106.345 291.562 106.431 291.803 106.431C292.143 106.431 292.368 106.282 292.478 105.983H293.113C293.03 106.271 292.876 106.502 292.649 106.674C292.422 106.842 292.14 106.926 291.803 106.926C291.531 106.926 291.29 106.866 291.081 106.746C290.871 106.622 290.706 106.45 290.586 106.23C290.469 106.007 290.41 105.749 290.41 105.457ZM294.06 103.662C293.953 103.662 293.864 103.626 293.792 103.554C293.72 103.481 293.683 103.392 293.683 103.285C293.683 103.179 293.72 103.089 293.792 103.017C293.864 102.945 293.953 102.909 294.06 102.909C294.163 102.909 294.251 102.945 294.323 103.017C294.395 103.089 294.431 103.179 294.431 103.285C294.431 103.392 294.395 103.481 294.323 103.554C294.251 103.626 294.163 103.662 294.06 103.662ZM294.349 104.038V106.88H293.761V104.038H294.349ZM296.616 103.992C296.84 103.992 297.039 104.038 297.215 104.131C297.393 104.224 297.533 104.362 297.632 104.544C297.732 104.726 297.782 104.946 297.782 105.204V106.88H297.199V105.292C297.199 105.037 297.136 104.843 297.008 104.709C296.881 104.571 296.708 104.502 296.488 104.502C296.267 104.502 296.092 104.571 295.961 104.709C295.834 104.843 295.771 105.037 295.771 105.292V106.88H295.183V104.038H295.771V104.363C295.867 104.246 295.989 104.155 296.137 104.09C296.288 104.025 296.448 103.992 296.616 103.992ZM299.739 103.992C299.959 103.992 300.153 104.037 300.322 104.126C300.494 104.212 300.628 104.32 300.724 104.451V104.038H301.317V106.926C301.317 107.188 301.262 107.42 301.152 107.623C301.042 107.829 300.882 107.991 300.672 108.107C300.466 108.224 300.219 108.283 299.93 108.283C299.545 108.283 299.225 108.192 298.971 108.009C298.716 107.831 298.572 107.587 298.537 107.277H299.12C299.165 107.425 299.259 107.544 299.404 107.633C299.552 107.726 299.727 107.772 299.93 107.772C300.167 107.772 300.358 107.7 300.502 107.556C300.65 107.411 300.724 107.201 300.724 106.926V106.452C300.624 106.586 300.489 106.699 300.317 106.792C300.148 106.882 299.956 106.926 299.739 106.926C299.491 106.926 299.265 106.865 299.058 106.741C298.855 106.614 298.694 106.438 298.573 106.215C298.457 105.988 298.398 105.732 298.398 105.446C298.398 105.161 298.457 104.908 298.573 104.688C298.694 104.468 298.855 104.298 299.058 104.178C299.265 104.054 299.491 103.992 299.739 103.992ZM300.724 105.457C300.724 105.261 300.683 105.09 300.6 104.946C300.521 104.802 300.416 104.692 300.286 104.616C300.155 104.54 300.014 104.502 299.863 104.502C299.711 104.502 299.571 104.54 299.44 104.616C299.309 104.688 299.203 104.796 299.12 104.941C299.041 105.082 299.002 105.25 299.002 105.446C299.002 105.642 299.041 105.814 299.12 105.962C299.203 106.11 299.309 106.223 299.44 106.302C299.574 106.378 299.715 106.416 299.863 106.416C300.014 106.416 300.155 106.378 300.286 106.302C300.416 106.227 300.521 106.117 300.6 105.972C300.683 105.824 300.724 105.653 300.724 105.457ZM306.158 105.39C306.158 105.496 306.151 105.592 306.137 105.678H303.966C303.983 105.905 304.067 106.087 304.219 106.225C304.37 106.363 304.556 106.431 304.776 106.431C305.092 106.431 305.315 106.299 305.446 106.034H306.08C305.994 106.296 305.838 106.51 305.611 106.679C305.388 106.844 305.109 106.926 304.776 106.926C304.504 106.926 304.26 106.866 304.043 106.746C303.83 106.622 303.662 106.45 303.538 106.23C303.417 106.007 303.357 105.749 303.357 105.457C303.357 105.164 303.416 104.908 303.533 104.688C303.653 104.465 303.82 104.293 304.033 104.172C304.25 104.052 304.497 103.992 304.776 103.992C305.044 103.992 305.283 104.05 305.492 104.167C305.702 104.284 305.865 104.449 305.982 104.662C306.099 104.872 306.158 105.114 306.158 105.39ZM305.544 105.204C305.541 104.987 305.463 104.814 305.312 104.683C305.161 104.552 304.973 104.487 304.75 104.487C304.547 104.487 304.373 104.552 304.229 104.683C304.084 104.81 303.999 104.984 303.971 105.204H305.544ZM307.386 103.064V106.88H306.798V103.064H307.386ZM308.52 103.662C308.413 103.662 308.324 103.626 308.251 103.554C308.179 103.481 308.143 103.392 308.143 103.285C308.143 103.179 308.179 103.089 308.251 103.017C308.324 102.945 308.413 102.909 308.52 102.909C308.623 102.909 308.71 102.945 308.783 103.017C308.855 103.089 308.891 103.179 308.891 103.285C308.891 103.392 308.855 103.481 308.783 103.554C308.71 103.626 308.623 103.662 308.52 103.662ZM308.808 104.038V106.88H308.22V104.038H308.808ZM310.328 104.518V106.091C310.328 106.198 310.352 106.275 310.4 106.323C310.452 106.368 310.538 106.39 310.658 106.39H311.019V106.88H310.555C310.29 106.88 310.088 106.818 309.947 106.694C309.806 106.571 309.735 106.369 309.735 106.091V104.518H309.4V104.038H309.735V103.332H310.328V104.038H311.019V104.518H310.328ZM312.268 106.173L311.644 107.597H311.262L311.628 106.173H312.268ZM315.277 106.926C315.054 106.926 314.852 106.887 314.674 106.808C314.498 106.725 314.359 106.615 314.256 106.478C314.153 106.337 314.098 106.18 314.091 106.008H314.699C314.71 106.129 314.767 106.23 314.87 106.313C314.976 106.392 315.109 106.431 315.267 106.431C315.432 106.431 315.559 106.4 315.648 106.338C315.741 106.273 315.788 106.191 315.788 106.091C315.788 105.984 315.736 105.905 315.633 105.854C315.533 105.802 315.373 105.745 315.153 105.684C314.94 105.625 314.767 105.568 314.632 105.513C314.498 105.458 314.381 105.374 314.282 105.261C314.185 105.147 314.137 104.998 314.137 104.812C314.137 104.661 314.182 104.523 314.271 104.399C314.361 104.272 314.488 104.172 314.653 104.1C314.822 104.028 315.014 103.992 315.231 103.992C315.554 103.992 315.813 104.074 316.009 104.239C316.209 104.401 316.315 104.623 316.329 104.905H315.741C315.731 104.778 315.679 104.676 315.587 104.6C315.494 104.525 315.368 104.487 315.21 104.487C315.055 104.487 314.937 104.516 314.854 104.575C314.772 104.633 314.73 104.71 314.73 104.807C314.73 104.882 314.758 104.946 314.813 104.998C314.868 105.049 314.935 105.09 315.014 105.121C315.093 105.149 315.21 105.185 315.365 105.23C315.571 105.285 315.74 105.341 315.87 105.4C316.004 105.455 316.119 105.537 316.216 105.647C316.312 105.757 316.362 105.904 316.365 106.086C316.365 106.247 316.321 106.392 316.231 106.519C316.142 106.646 316.015 106.746 315.85 106.818C315.688 106.89 315.497 106.926 315.277 106.926ZM319.667 105.39C319.667 105.496 319.66 105.592 319.647 105.678H317.475C317.492 105.905 317.577 106.087 317.728 106.225C317.879 106.363 318.065 106.431 318.285 106.431C318.601 106.431 318.825 106.299 318.955 106.034H319.59C319.504 106.296 319.347 106.51 319.12 106.679C318.897 106.844 318.618 106.926 318.285 106.926C318.013 106.926 317.769 106.866 317.553 106.746C317.339 106.622 317.171 106.45 317.047 106.23C316.927 106.007 316.867 105.749 316.867 105.457C316.867 105.164 316.925 104.908 317.042 104.688C317.162 104.465 317.329 104.293 317.542 104.172C317.759 104.052 318.006 103.992 318.285 103.992C318.553 103.992 318.792 104.05 319.002 104.167C319.212 104.284 319.375 104.449 319.492 104.662C319.609 104.872 319.667 105.114 319.667 105.39ZM319.053 105.204C319.05 104.987 318.973 104.814 318.821 104.683C318.67 104.552 318.483 104.487 318.259 104.487C318.056 104.487 317.883 104.552 317.738 104.683C317.594 104.81 317.508 104.984 317.48 105.204H319.053ZM320.112 105.446C320.112 105.161 320.17 104.908 320.287 104.688C320.408 104.468 320.569 104.298 320.772 104.178C320.978 104.054 321.207 103.992 321.458 103.992C321.644 103.992 321.826 104.033 322.005 104.116C322.187 104.195 322.331 104.301 322.438 104.435V103.064H323.031V106.88H322.438V106.452C322.342 106.589 322.207 106.703 322.036 106.792C321.867 106.882 321.673 106.926 321.453 106.926C321.205 106.926 320.978 106.865 320.772 106.741C320.569 106.614 320.408 106.438 320.287 106.215C320.17 105.988 320.112 105.732 320.112 105.446ZM322.438 105.457C322.438 105.261 322.397 105.09 322.314 104.946C322.235 104.802 322.13 104.692 321.999 104.616C321.869 104.54 321.728 104.502 321.577 104.502C321.425 104.502 321.284 104.54 321.154 104.616C321.023 104.688 320.916 104.796 320.834 104.941C320.755 105.082 320.715 105.25 320.715 105.446C320.715 105.642 320.755 105.814 320.834 105.962C320.916 106.11 321.023 106.223 321.154 106.302C321.288 106.378 321.429 106.416 321.577 106.416C321.728 106.416 321.869 106.378 321.999 106.302C322.13 106.227 322.235 106.117 322.314 105.972C322.397 105.824 322.438 105.653 322.438 105.457Z" fill="white"/>
</g>
<defs>
<linearGradient id="paint0_linear_568_3855" x1="166.367" y1="103" x2="166.367" y2="220.101" gradientUnits="userSpaceOnUse">
<stop stop-color="#4700A0"/>
<stop offset="1" stop-color="#7200FF"/>
</linearGradient>
<linearGradient id="paint1_linear_568_3855" x1="433.169" y1="20.2835" x2="142.118" y2="157.675" gradientUnits="userSpaceOnUse">
<stop stop-color="#4F00B1"/>
<stop offset="1" stop-color="#7200FF"/>
</linearGradient>
<linearGradient id="paint2_linear_568_3855" x1="264" y1="87" x2="264" y2="220" gradientUnits="userSpaceOnUse">
<stop stop-color="white" stop-opacity="0.9"/>
<stop offset="1" stop-color="#7200FF"/>
</linearGradient>
<linearGradient id="paint3_linear_568_3855" x1="288.832" y1="171" x2="288.832" y2="220.101" gradientUnits="userSpaceOnUse">
<stop stop-color="#4700A0"/>
<stop offset="1" stop-color="#7200FF"/>
</linearGradient>
<clipPath id="clip0_568_3855">
<rect width="360" height="220" fill="white"/>
</clipPath>
<clipPath id="clip1_568_3855">
<rect width="106.488" height="167" fill="white" transform="translate(31.3774 54)"/>
</clipPath>
</defs>
</svg>
